<?xml version="1.0" encoding="UTF-8" standalone="no"?>
<svg
   xmlns:dc="http://purl.org/dc/elements/1.1/"
   xmlns:cc="http://creativecommons.org/ns#"
   xmlns:rdf="http://www.w3.org/1999/02/22-rdf-syntax-ns#"
   xmlns:svg="http://www.w3.org/2000/svg"
   xmlns="http://www.w3.org/2000/svg"
   xmlns:sodipodi="http://sodipodi.sourceforge.net/DTD/sodipodi-0.dtd"
   xmlns:inkscape="http://www.inkscape.org/namespaces/inkscape"
   width="200mm"
   height="200mm"
   viewBox="0 0 200 200"
   version="1.1"
   id="svg8"
   inkscape:version="1.0.1 (3bc2e813f5, 2020-09-07)"
   sodipodi:docname="Favicon.svg">
  <defs
     id="defs2" />
  <sodipodi:namedview
     id="base"
     pagecolor="#ffffff"
     bordercolor="#666666"
     borderopacity="1.0"
     inkscape:pageopacity="0.0"
     inkscape:pageshadow="2"
     inkscape:zoom="0.33557348"
     inkscape:cx="400.31225"
     inkscape:cy="340.61654"
     inkscape:document-units="mm"
     inkscape:current-layer="layer1"
     inkscape:document-rotation="0"
     showgrid="false"
     inkscape:window-width="1366"
     inkscape:window-height="705"
     inkscape:window-x="-8"
     inkscape:window-y="-8"
     inkscape:window-maximized="1" />
  <metadata
     id="metadata5">
    <rdf:RDF>
      <cc:Work
         rdf:about="">
        <dc:format>image/svg+xml</dc:format>
        <dc:type
           rdf:resource="http://purl.org/dc/dcmitype/StillImage" />
        <dc:title></dc:title>
      </cc:Work>
    </rdf:RDF>
  </metadata>
  <g
     inkscape:label="Layer 1"
     inkscape:groupmode="layer"
     id="layer1">
    <path
       style="fill:#cf31f9;fill-opacity:1;stroke:#f9722f;stroke-width:1.05833;stroke-linecap:butt;stroke-linejoin:miter;stroke-miterlimit:4;stroke-dasharray:none;stroke-opacity:1"
       d="m 57.951168,29.172696 c -9.490456,-0.434435 -15.239431,2.960912 -22.076634,8.278738 -9.088483,5.127046 -10.926229,11.877791 -13.797899,20.499734 -0.612262,1.836785 -0.898586,4.104542 -1.576902,5.913385 -1.748524,2.600239 -0.926598,3.469785 -1.971128,8.278738 -0.708704,3.189163 -1.851844,6.209181 -2.365354,9.461415 0.330601,1.766744 -0.415721,3.201319 -0.788452,4.730708 -0.844459,3.659325 -0.914069,8.170492 0,11.826769 0.274279,1.097113 2.345735,5.085697 2.75958,5.913387 3.268,6.536 7.383528,12.61001 11.038317,18.92283 4.740926,8.18887 8.236614,11.49423 15.3748,17.74015 6.975478,4.98232 15.529916,12.28648 22.865087,16.55748 18.987327,8.50308 26.720137,6.80556 39.028337,10.24986 5.8289,1.1249 19.50962,6.31758 24.83622,7.88451 9.10666,0.36222 37.3053,-1.20824 41.83719,-1.87257 2.23564,-0.32772 12.82134,-2.35422 13.84718,-3.89297 -1.03029,-2.64322 -4.3973,-7.19654 -4.82927,-8.8208 -1.58444,-5.95765 -7.5743,-13.54509 -8.27601,-14.32125 -0.34158,-0.47821 -3.20917,-3.08853 -3.55075,-3.56674 -3.13998,-4.39597 -6.85921,-7.05632 -10.6441,-10.8412 -2.95518,-2.95518 -11.3935,-10.68045 -14.48779,-13.45295 -10.53299,-9.43763 -17.80071,-21.23339 -21.38674,-25.526116 -2.80958,-3.363255 -4.80846,-6.852872 -7.49029,-10.249865 -0.98051,-1.241973 -1.03247,-3.949595 -1.97113,-5.22349 -5.17358,-7.021295 0.86177,-0.929934 -5.91338,-8.672965 -6.5695,-7.091102 -14.239594,-12.45491 -21.682412,-17.345927 -1.093386,-0.728924 -2.034654,-1.676643 -3.153804,-2.365354 -5.419412,-1.923338 -10.471661,-6.704101 -14.192123,-9.067188 -2.689887,-1.681179 -5.310868,-3.629819 -7.096062,-6.307611 -0.566094,-0.849141 -1.531755,-1.076743 -2.365354,-1.576901 -0.654862,-0.39292 -1.682353,-2.576256 -1.971127,-3.153807 z"
       id="path837"
       sodipodi:nodetypes="cccccccsssccccscscssssssccccssc" />
    <path
       style="fill:#ee3e07;fill-opacity:1;stroke:#ed3e07;stroke-width:1.05833;stroke-linecap:butt;stroke-linejoin:miter;stroke-miterlimit:4;stroke-dasharray:none;stroke-opacity:0.98"
       d="m 22.076635,32.819286 c 0.330323,-0.976346 0.587244,-1.437133 2.168241,-3.424837 0.428959,-0.539309 -1.206081,1.407274 -0.755232,0.705955 1.594679,-2.480606 6.080195,-8.136296 6.274391,-8.615107 0.98007,1.729542 2.97653,5.528693 3.778962,6.725749 1.630394,2.432199 1.989659,3.308067 3.338961,5.009469 0.706379,0.890709 -0.230326,4.143684 0.137328,4.989655 1.021596,2.45183 1.294027,3.829373 1.576903,6.37525 0.732287,6.59058 0.04091,-2.473225 0.788451,2.759577 0.216849,1.517949 -0.332089,3.236217 0,4.730708 0.731071,3.290018 3.592247,2.440067 5.359968,7.649477 0.752464,2.217481 2.01825,4.477848 2.759581,6.701838 0.211888,0.635669 0.145372,1.348996 0.394223,1.971127 1.923058,4.807643 7.642055,7.479327 10.230056,11.846579 2.773196,4.679765 9.085665,7.969401 12.832146,12.004072 5.061987,5.451372 8.865737,12.407302 15.183489,16.123622 1.16614,0.68597 2.458844,1.16857 3.548031,1.97113 2.776892,2.04613 5.125058,4.63224 7.884511,6.70184 2.945445,2.30764 9.011395,7.10505 10.539735,8.12124 0.41758,0.27765 3.63136,2.1076 4.44083,2.91707 1.11891,1.11891 2.00341,2.46154 3.15381,3.54803 1.22346,1.15549 2.66454,2.05863 3.94226,3.15381 1.82899,1.56771 3.32415,3.52424 5.12493,5.12493 0.96151,0.85467 3.8287,3.00683 4.73071,3.54803 1.00786,0.60472 4.9833,2.00368 6.10469,2.35571 2.42653,0.76174 6.64823,2.74857 9.46142,3.44947 2.27069,0.56574 9.53107,4.50173 13.40367,6.75111 3.83715,2.72953 12.768,5.80213 16.45892,9.0672 -6.85131,-0.0238 -27.57076,-6.16869 -29.86259,-6.60329 -1.3453,-0.26906 -2.6231,-0.80577 -3.94225,-1.18267 -2.34922,-0.67121 -4.26351,-2.27192 -6.70184,-2.75958 -3.51068,-0.70214 -6.4379,-0.50639 -9.85564,-1.97113 -2.13889,-0.91667 -3.86675,-2.91894 -5.91339,-3.94226 -1.37571,-0.68786 -2.96076,-0.88904 -4.33648,-1.5769 -4.14817,-2.07409 -9.36121,-6.87072 -13.00944,-9.85564 -1.97475,-1.6157 -4.32448,-2.73109 -6.307614,-4.33648 -3.463129,-2.80349 -6.936494,-6.12525 -9.855639,-9.46142 -2.553375,-2.91814 -5.535986,-5.53598 -8.278738,-8.27874 -0.824098,-0.82409 -1.935483,-2.32971 -2.759581,-3.1538 -1.34244,-1.34244 -2.567381,-2.22612 -3.54803,-3.94226 -2.39657,-4.194 -5.215194,-6.51028 -7.100165,-11.034211 -1.741189,-4.17885 -5.794784,-4.513176 -9.166597,-7.535037 C 50.642333,86.451178 47.974554,83.108753 45.335947,79.337908 42.713057,75.520211 42.237485,71.930636 39.619674,68.003921 36.705829,63.633152 33.320562,60.221244 31.894352,55.229512 31.498948,53.845596 30.730934,52.66553 30.317451,51.287255 29.660983,49.099031 30.020804,45.700942 28.091477,44.44604 24.677523,42.225484 22.350893,35.624241 22.076635,32.819286 Z"
       id="path833"
       sodipodi:nodetypes="csscsscsssssssssscsssssssscccssssssssssssccssssc" />
  </g>
</svg>
